<?xml version="1.0" encoding="UTF-8"?>
<svg xmlns="http://www.w3.org/2000/svg" xmlns:xlink="http://www.w3.org/1999/xlink" width="32px" height="32px" viewBox="0 0 32 31" version="1.1">
<defs>
<linearGradient id="linear0" gradientUnits="userSpaceOnUse" x1="1615.592773" y1="2594.331055" x2="3822.506104" y2="175.777298" gradientTransform="matrix(0.00711083,0,0,0.00689934,0.000641597,0)">
<stop offset="0" style="stop-color:rgb(0%,0.392157%,47.058824%);stop-opacity:1;"/>
<stop offset="0.0304" style="stop-color:rgb(0.784314%,5.490196%,52.54902%);stop-opacity:1;"/>
<stop offset="0.1206" style="stop-color:rgb(3.137255%,19.215686%,67.058824%);stop-opacity:1;"/>
<stop offset="0.2046" style="stop-color:rgb(4.705882%,29.019608%,77.647059%);stop-opacity:1;"/>
<stop offset="0.2791" style="stop-color:rgb(5.490196%,35.294118%,83.921569%);stop-opacity:1;"/>
<stop offset="0.3364" style="stop-color:rgb(5.882353%,37.254902%,86.27451%);stop-opacity:1;"/>
<stop offset="0.3877" style="stop-color:rgb(7.058824%,40.392157%,86.27451%);stop-opacity:1;"/>
<stop offset="0.4687" style="stop-color:rgb(9.803922%,49.411765%,85.882353%);stop-opacity:1;"/>
<stop offset="0.5692" style="stop-color:rgb(14.509804%,63.921569%,85.490196%);stop-opacity:1;"/>
<stop offset="0.6848" style="stop-color:rgb(21.176471%,83.921569%,85.098039%);stop-opacity:1;"/>
</linearGradient>
</defs>
<g id="surface1">
<path style=" stroke:none;fill-rule:nonzero;fill:rgb(0%,0.392157%,47.058824%);fill-opacity:1;" d="M 26.414062 18.925781 C 26.453125 18.988281 26.421875 19.035156 26.347656 19.035156 L 18.539062 19.035156 C 18.464844 19.035156 18.375 18.988281 18.335938 18.925781 L 15.617188 14.4375 C 15.582031 14.375 15.519531 14.375 15.480469 14.4375 L 12.761719 18.925781 C 12.726562 18.988281 12.632812 19.035156 12.558594 19.035156 L 4.75 19.035156 C 4.675781 19.035156 4.648438 18.988281 4.683594 18.925781 L 5.367188 17.800781 C 5.40625 17.738281 5.496094 17.6875 5.570312 17.6875 L 11.761719 17.6875 C 11.835938 17.6875 11.929688 17.636719 11.964844 17.574219 L 15.480469 11.773438 C 15.519531 11.710938 15.582031 11.710938 15.617188 11.773438 L 19.132812 17.574219 C 19.171875 17.636719 19.261719 17.6875 19.335938 17.6875 L 25.53125 17.6875 C 25.605469 17.6875 25.695312 17.738281 25.734375 17.800781 Z M 26.414062 18.925781 "/>
<path style=" stroke:none;fill-rule:nonzero;fill:rgb(0%,0.392157%,47.058824%);fill-opacity:1;" d="M 15.617188 17.105469 C 15.582031 17.042969 15.519531 17.042969 15.480469 17.105469 L 14.378906 18.925781 C 14.339844 18.988281 14.371094 19.035156 14.445312 19.035156 L 16.65625 19.035156 C 16.730469 19.035156 16.757812 18.988281 16.722656 18.925781 Z M 15.617188 17.105469 "/>
<path style=" stroke:none;fill-rule:nonzero;fill:url(#linear0);" d="M 24.777344 16.222656 C 24.816406 16.285156 24.785156 16.335938 24.710938 16.335938 L 20.132812 16.335938 C 20.058594 16.335938 19.96875 16.285156 19.933594 16.222656 L 15.617188 9.109375 C 15.582031 9.046875 15.519531 9.046875 15.480469 9.109375 L 11.167969 16.222656 C 11.132812 16.285156 11.039062 16.335938 10.964844 16.335938 L 6.386719 16.335938 C 6.3125 16.335938 6.285156 16.285156 6.320312 16.222656 L 7.003906 15.097656 C 7.042969 15.035156 7.132812 14.984375 7.207031 14.984375 L 10.167969 14.984375 C 10.242188 14.984375 10.335938 14.933594 10.371094 14.871094 L 15.480469 6.441406 C 15.519531 6.378906 15.582031 6.378906 15.617188 6.441406 L 20.726562 14.871094 C 20.765625 14.933594 20.855469 14.984375 20.929688 14.984375 L 23.894531 14.984375 C 23.96875 14.984375 24.058594 15.035156 24.097656 15.097656 Z M 7.960938 13.523438 C 7.921875 13.582031 7.953125 13.632812 8.027344 13.632812 L 9.371094 13.632812 C 9.445312 13.632812 9.539062 13.582031 9.574219 13.523438 L 15.480469 3.777344 C 15.519531 3.714844 15.582031 3.714844 15.617188 3.777344 L 21.527344 13.523438 C 21.5625 13.582031 21.652344 13.632812 21.726562 13.632812 L 23.074219 13.632812 C 23.148438 13.632812 23.179688 13.582031 23.140625 13.523438 L 15.617188 1.113281 C 15.582031 1.050781 15.519531 1.050781 15.480469 1.113281 Z M 7.960938 13.523438 "/>
<path style=" stroke:none;fill-rule:nonzero;fill:rgb(0%,0%,0%);fill-opacity:1;" d="M 3.441406 21.527344 L 4.382812 21.527344 L 6.152344 26.027344 L 5.121094 26.027344 L 4.753906 25.042969 L 3.078125 25.042969 L 2.714844 26.027344 L 1.679688 26.027344 Z M 3.375 24.234375 L 4.457031 24.234375 L 3.914062 22.773438 Z M 3.375 24.234375 "/>
<path style=" stroke:none;fill-rule:nonzero;fill:rgb(0%,0%,0%);fill-opacity:1;" d="M 7.917969 25.816406 C 7.566406 25.640625 7.285156 25.378906 7.078125 25.03125 C 6.871094 24.683594 6.765625 24.265625 6.765625 23.777344 C 6.765625 23.289062 6.871094 22.871094 7.082031 22.523438 C 7.292969 22.175781 7.574219 21.914062 7.929688 21.738281 C 8.285156 21.5625 8.675781 21.472656 9.101562 21.472656 C 9.484375 21.472656 9.832031 21.539062 10.140625 21.675781 C 10.449219 21.808594 10.703125 21.996094 10.894531 22.238281 C 11.089844 22.484375 11.207031 22.765625 11.246094 23.089844 L 10.199219 23.089844 C 10.167969 22.851562 10.050781 22.664062 9.84375 22.519531 C 9.640625 22.375 9.390625 22.304688 9.09375 22.304688 C 8.839844 22.304688 8.617188 22.359375 8.417969 22.476562 C 8.21875 22.589844 8.0625 22.753906 7.945312 22.976562 C 7.832031 23.195312 7.773438 23.464844 7.773438 23.777344 C 7.773438 24.089844 7.832031 24.355469 7.945312 24.578125 C 8.0625 24.796875 8.21875 24.964844 8.417969 25.074219 C 8.617188 25.1875 8.839844 25.242188 9.09375 25.242188 C 9.390625 25.242188 9.640625 25.171875 9.851562 25.027344 C 10.0625 24.882812 10.1875 24.695312 10.226562 24.464844 L 11.226562 24.464844 C 11.195312 24.78125 11.085938 25.0625 10.898438 25.308594 C 10.710938 25.550781 10.460938 25.742188 10.148438 25.875 C 9.839844 26.011719 9.488281 26.078125 9.101562 26.078125 C 8.667969 26.078125 8.273438 25.992188 7.917969 25.816406 Z M 7.917969 25.816406 "/>
<path style=" stroke:none;fill-rule:nonzero;fill:rgb(0%,0%,0%);fill-opacity:1;" d="M 13.402344 22.355469 L 12.03125 22.355469 L 12.03125 21.527344 L 15.777344 21.527344 L 15.777344 22.355469 L 14.402344 22.355469 L 14.402344 26.027344 L 13.402344 26.027344 Z M 13.402344 22.355469 "/>
<path style=" stroke:none;fill-rule:nonzero;fill:rgb(0%,0%,0%);fill-opacity:1;" d="M 16.808594 21.527344 L 17.808594 21.527344 L 17.808594 26.027344 L 16.808594 26.027344 Z M 16.808594 21.527344 "/>
<path style=" stroke:none;fill-rule:nonzero;fill:rgb(0%,0%,0%);fill-opacity:1;" d="M 20.59375 21.527344 L 21.535156 21.527344 L 23.304688 26.027344 L 22.273438 26.027344 L 21.90625 25.042969 L 20.230469 25.042969 L 19.867188 26.027344 L 18.832031 26.027344 Z M 20.527344 24.234375 L 21.609375 24.234375 L 21.066406 22.773438 Z M 20.527344 24.234375 "/>
<path style=" stroke:none;fill-rule:nonzero;fill:rgb(0%,0%,0%);fill-opacity:1;" d="M 24.320312 21.527344 L 25.382812 21.527344 L 27.242188 24.503906 L 27.242188 21.527344 L 28.238281 21.527344 L 28.238281 26.027344 L 27.175781 26.027344 L 25.316406 23.050781 L 25.316406 26.027344 L 24.320312 26.027344 Z M 24.320312 21.527344 "/>
<path style=" stroke:none;fill-rule:nonzero;fill:rgb(0%,0%,0%);fill-opacity:1;" d="M 2.746094 29.171875 C 2.679688 29.113281 2.644531 29.039062 2.644531 28.941406 C 2.644531 28.84375 2.683594 28.765625 2.761719 28.707031 C 2.835938 28.648438 2.941406 28.621094 3.070312 28.621094 L 3.3125 28.621094 C 3.335938 28.621094 3.355469 28.613281 3.363281 28.605469 C 3.375 28.59375 3.382812 28.578125 3.382812 28.5625 C 3.382812 28.492188 3.355469 28.433594 3.304688 28.390625 C 3.253906 28.347656 3.183594 28.324219 3.09375 28.324219 C 3.015625 28.324219 2.949219 28.34375 2.894531 28.386719 C 2.839844 28.425781 2.808594 28.476562 2.804688 28.53125 L 2.644531 28.53125 C 2.652344 28.464844 2.675781 28.40625 2.714844 28.355469 C 2.757812 28.300781 2.8125 28.261719 2.878906 28.230469 C 2.945312 28.199219 3.019531 28.183594 3.097656 28.183594 C 3.238281 28.183594 3.347656 28.21875 3.429688 28.289062 C 3.511719 28.359375 3.550781 28.453125 3.550781 28.570312 L 3.550781 29.238281 L 3.382812 29.238281 L 3.382812 29.058594 C 3.355469 29.121094 3.304688 29.167969 3.242188 29.203125 C 3.175781 29.238281 3.101562 29.257812 3.015625 29.257812 C 2.90625 29.257812 2.816406 29.226562 2.746094 29.171875 Z M 2.878906 29.070312 C 2.917969 29.101562 2.972656 29.117188 3.042969 29.117188 C 3.148438 29.117188 3.234375 29.085938 3.292969 29.023438 C 3.351562 28.964844 3.382812 28.878906 3.382812 28.773438 L 3.382812 28.746094 L 3.082031 28.746094 C 3 28.746094 2.9375 28.761719 2.890625 28.796875 C 2.84375 28.832031 2.820312 28.878906 2.820312 28.941406 C 2.820312 28.996094 2.839844 29.035156 2.878906 29.070312 Z M 2.878906 29.070312 "/>
<path style=" stroke:none;fill-rule:nonzero;fill:rgb(0%,0%,0%);fill-opacity:1;" d="M 4.515625 29.1875 C 4.4375 29.140625 4.378906 29.074219 4.339844 28.996094 C 4.296875 28.914062 4.277344 28.820312 4.277344 28.71875 C 4.277344 28.617188 4.296875 28.527344 4.339844 28.445312 C 4.378906 28.363281 4.4375 28.300781 4.515625 28.253906 C 4.59375 28.207031 4.6875 28.183594 4.792969 28.183594 C 4.871094 28.183594 4.9375 28.199219 5.003906 28.234375 C 5.066406 28.269531 5.117188 28.3125 5.148438 28.371094 L 5.148438 27.773438 L 5.320312 27.773438 L 5.320312 29.238281 L 5.148438 29.238281 L 5.148438 29.070312 C 5.117188 29.125 5.066406 29.171875 5.003906 29.203125 C 4.9375 29.238281 4.871094 29.257812 4.792969 29.257812 C 4.6875 29.257812 4.59375 29.234375 4.515625 29.1875 Z M 4.550781 29 C 4.617188 29.074219 4.703125 29.109375 4.808594 29.109375 C 4.917969 29.109375 5.003906 29.074219 5.066406 29 C 5.132812 28.929688 5.164062 28.835938 5.164062 28.71875 C 5.164062 28.601562 5.132812 28.507812 5.066406 28.4375 C 5.003906 28.367188 4.917969 28.332031 4.808594 28.332031 C 4.703125 28.332031 4.617188 28.367188 4.550781 28.4375 C 4.488281 28.507812 4.453125 28.601562 4.453125 28.71875 C 4.453125 28.835938 4.488281 28.929688 4.550781 29 Z M 4.550781 29 "/>
<path style=" stroke:none;fill-rule:nonzero;fill:rgb(0%,0%,0%);fill-opacity:1;" d="M 5.792969 27.773438 L 5.792969 28.003906 L 5.597656 28.003906 L 5.597656 27.773438 Z M 5.613281 28.199219 L 5.78125 28.199219 L 5.78125 29.238281 L 5.613281 29.238281 Z M 5.613281 28.199219 "/>
<path style=" stroke:none;fill-rule:nonzero;fill:rgb(0%,0%,0%);fill-opacity:1;" d="M 5.953125 28.199219 L 6.128906 28.199219 L 6.433594 29.035156 L 6.738281 28.199219 L 6.917969 28.199219 L 6.527344 29.238281 L 6.347656 29.238281 Z M 5.953125 28.199219 "/>
<path style=" stroke:none;fill-rule:nonzero;fill:rgb(0%,0%,0%);fill-opacity:1;" d="M 7.273438 27.773438 L 7.273438 28.003906 L 7.078125 28.003906 L 7.078125 27.773438 Z M 7.089844 28.199219 L 7.257812 28.199219 L 7.257812 29.238281 L 7.089844 29.238281 Z M 7.089844 28.199219 "/>
<path style=" stroke:none;fill-rule:nonzero;fill:rgb(0%,0%,0%);fill-opacity:1;" d="M 7.609375 29.164062 C 7.53125 29.101562 7.488281 29.015625 7.484375 28.90625 L 7.648438 28.90625 C 7.652344 28.972656 7.679688 29.023438 7.722656 29.058594 C 7.769531 29.09375 7.832031 29.113281 7.90625 29.113281 C 7.972656 29.113281 8.027344 29.097656 8.070312 29.066406 C 8.113281 29.035156 8.132812 29 8.132812 28.957031 C 8.132812 28.910156 8.121094 28.878906 8.097656 28.855469 C 8.074219 28.832031 8.046875 28.8125 8.011719 28.804688 C 7.976562 28.792969 7.925781 28.785156 7.863281 28.773438 C 7.789062 28.761719 7.726562 28.75 7.679688 28.734375 C 7.632812 28.71875 7.589844 28.691406 7.558594 28.648438 C 7.523438 28.609375 7.507812 28.550781 7.507812 28.476562 C 7.507812 28.386719 7.542969 28.316406 7.613281 28.261719 C 7.683594 28.210938 7.773438 28.183594 7.886719 28.183594 C 8.007812 28.183594 8.101562 28.214844 8.175781 28.269531 C 8.25 28.328125 8.289062 28.40625 8.292969 28.5 L 8.128906 28.5 C 8.125 28.441406 8.09375 28.398438 8.046875 28.367188 C 7.996094 28.339844 7.941406 28.324219 7.882812 28.324219 C 7.820312 28.324219 7.773438 28.335938 7.734375 28.363281 C 7.695312 28.390625 7.675781 28.425781 7.675781 28.472656 C 7.675781 28.511719 7.6875 28.539062 7.710938 28.5625 C 7.730469 28.582031 7.757812 28.597656 7.792969 28.605469 C 7.824219 28.613281 7.871094 28.621094 7.929688 28.628906 C 8.007812 28.640625 8.074219 28.652344 8.121094 28.667969 C 8.171875 28.6875 8.214844 28.714844 8.25 28.757812 C 8.285156 28.804688 8.300781 28.867188 8.300781 28.949219 C 8.300781 29.042969 8.265625 29.117188 8.195312 29.171875 C 8.121094 29.226562 8.027344 29.257812 7.90625 29.257812 C 7.785156 29.257812 7.683594 29.226562 7.609375 29.164062 Z M 7.609375 29.164062 "/>
<path style=" stroke:none;fill-rule:nonzero;fill:rgb(0%,0%,0%);fill-opacity:1;" d="M 8.722656 27.773438 L 8.722656 28.003906 L 8.527344 28.003906 L 8.527344 27.773438 Z M 8.539062 28.199219 L 8.710938 28.199219 L 8.710938 29.238281 L 8.539062 29.238281 Z M 8.539062 28.199219 "/>
<path style=" stroke:none;fill-rule:nonzero;fill:rgb(0%,0%,0%);fill-opacity:1;" d="M 9.195312 29.1875 C 9.113281 29.140625 9.050781 29.078125 9.003906 28.996094 C 8.957031 28.914062 8.933594 28.824219 8.933594 28.71875 C 8.933594 28.617188 8.957031 28.523438 9.003906 28.445312 C 9.050781 28.363281 9.113281 28.300781 9.195312 28.253906 C 9.277344 28.207031 9.371094 28.183594 9.476562 28.183594 C 9.582031 28.183594 9.675781 28.207031 9.757812 28.253906 C 9.839844 28.300781 9.90625 28.363281 9.953125 28.445312 C 10 28.523438 10.023438 28.617188 10.023438 28.71875 C 10.023438 28.824219 10 28.914062 9.953125 28.996094 C 9.90625 29.078125 9.839844 29.140625 9.757812 29.1875 C 9.675781 29.234375 9.582031 29.257812 9.476562 29.257812 C 9.371094 29.257812 9.277344 29.234375 9.195312 29.1875 Z M 9.152344 28.921875 C 9.183594 28.980469 9.226562 29.023438 9.285156 29.058594 C 9.339844 29.089844 9.402344 29.109375 9.476562 29.109375 C 9.546875 29.109375 9.613281 29.089844 9.667969 29.058594 C 9.726562 29.023438 9.769531 28.980469 9.800781 28.921875 C 9.832031 28.859375 9.847656 28.792969 9.847656 28.71875 C 9.847656 28.644531 9.832031 28.578125 9.800781 28.519531 C 9.769531 28.460938 9.726562 28.414062 9.667969 28.382812 C 9.613281 28.347656 9.546875 28.332031 9.476562 28.332031 C 9.402344 28.332031 9.339844 28.347656 9.285156 28.382812 C 9.226562 28.414062 9.183594 28.460938 9.152344 28.519531 C 9.121094 28.578125 9.105469 28.644531 9.105469 28.71875 C 9.105469 28.792969 9.121094 28.859375 9.152344 28.921875 Z M 9.152344 28.921875 "/>
<path style=" stroke:none;fill-rule:nonzero;fill:rgb(0%,0%,0%);fill-opacity:1;" d="M 10.246094 28.199219 L 10.417969 28.199219 L 10.417969 28.402344 C 10.445312 28.328125 10.488281 28.277344 10.550781 28.238281 C 10.613281 28.203125 10.6875 28.183594 10.769531 28.183594 C 10.890625 28.183594 10.988281 28.222656 11.0625 28.300781 C 11.132812 28.375 11.171875 28.476562 11.171875 28.605469 L 11.171875 29.238281 L 11 29.238281 L 11 28.632812 C 11 28.542969 10.976562 28.46875 10.925781 28.417969 C 10.878906 28.363281 10.8125 28.335938 10.734375 28.335938 C 10.640625 28.335938 10.566406 28.367188 10.503906 28.433594 C 10.445312 28.496094 10.417969 28.578125 10.417969 28.679688 L 10.417969 29.238281 L 10.246094 29.238281 Z M 10.246094 28.199219 "/>
<path style=" stroke:none;fill-rule:nonzero;fill:rgb(0%,0%,0%);fill-opacity:1;" d="M 12.15625 29.1875 C 12.074219 29.140625 12.007812 29.078125 11.960938 28.996094 C 11.914062 28.914062 11.894531 28.824219 11.894531 28.71875 C 11.894531 28.617188 11.914062 28.523438 11.960938 28.445312 C 12.007812 28.363281 12.074219 28.300781 12.15625 28.253906 C 12.238281 28.207031 12.332031 28.183594 12.4375 28.183594 C 12.542969 28.183594 12.636719 28.207031 12.71875 28.253906 C 12.800781 28.300781 12.867188 28.363281 12.914062 28.445312 C 12.957031 28.523438 12.980469 28.617188 12.980469 28.71875 C 12.980469 28.824219 12.960938 28.914062 12.914062 28.996094 C 12.867188 29.078125 12.800781 29.140625 12.71875 29.1875 C 12.636719 29.234375 12.542969 29.257812 12.4375 29.257812 C 12.332031 29.257812 12.238281 29.234375 12.15625 29.1875 Z M 12.113281 28.921875 C 12.144531 28.980469 12.1875 29.023438 12.246094 29.058594 C 12.300781 29.089844 12.363281 29.109375 12.4375 29.109375 C 12.507812 29.109375 12.574219 29.089844 12.628906 29.058594 C 12.6875 29.023438 12.730469 28.980469 12.761719 28.921875 C 12.792969 28.859375 12.808594 28.792969 12.808594 28.71875 C 12.808594 28.644531 12.792969 28.578125 12.761719 28.519531 C 12.730469 28.460938 12.6875 28.414062 12.628906 28.382812 C 12.574219 28.347656 12.507812 28.332031 12.4375 28.332031 C 12.363281 28.332031 12.300781 28.347656 12.246094 28.382812 C 12.1875 28.414062 12.144531 28.460938 12.113281 28.519531 C 12.082031 28.578125 12.066406 28.644531 12.066406 28.71875 C 12.066406 28.792969 12.082031 28.859375 12.113281 28.921875 Z M 12.113281 28.921875 "/>
<path style=" stroke:none;fill-rule:nonzero;fill:rgb(0%,0%,0%);fill-opacity:1;" d="M 13.273438 28.347656 L 13.050781 28.347656 L 13.050781 28.199219 L 13.273438 28.199219 L 13.273438 27.949219 C 13.273438 27.894531 13.289062 27.851562 13.320312 27.820312 C 13.355469 27.789062 13.398438 27.773438 13.453125 27.773438 L 13.777344 27.773438 L 13.777344 27.921875 L 13.445312 27.921875 L 13.445312 28.199219 L 13.777344 28.199219 L 13.777344 28.347656 L 13.445312 28.347656 L 13.445312 29.238281 L 13.273438 29.238281 Z M 13.273438 28.347656 "/>
<path style=" stroke:none;fill-rule:nonzero;fill:rgb(0%,0%,0%);fill-opacity:1;" d="M 15.65625 27.796875 L 15.65625 29.238281 L 15.378906 29.238281 L 15.378906 28.621094 L 14.714844 28.621094 L 14.714844 29.238281 L 14.4375 29.238281 L 14.4375 27.796875 L 14.714844 27.796875 L 14.714844 28.382812 L 15.378906 28.382812 L 15.378906 27.796875 Z M 15.65625 27.796875 "/>
<path style=" stroke:none;fill-rule:nonzero;fill:rgb(0%,0%,0%);fill-opacity:1;" d="M 16.253906 29.171875 C 16.144531 29.117188 16.054688 29.03125 15.988281 28.921875 C 15.921875 28.8125 15.886719 28.675781 15.886719 28.519531 C 15.886719 28.363281 15.921875 28.226562 15.988281 28.117188 C 16.054688 28.003906 16.144531 27.921875 16.257812 27.863281 C 16.371094 27.808594 16.492188 27.78125 16.628906 27.78125 C 16.746094 27.78125 16.851562 27.800781 16.949219 27.84375 C 17.046875 27.886719 17.125 27.945312 17.1875 28.019531 C 17.25 28.097656 17.285156 28.183594 17.296875 28.285156 L 17.003906 28.285156 C 16.992188 28.203125 16.953125 28.140625 16.882812 28.089844 C 16.8125 28.039062 16.726562 28.015625 16.625 28.015625 C 16.539062 28.015625 16.460938 28.035156 16.390625 28.074219 C 16.324219 28.113281 16.269531 28.167969 16.230469 28.246094 C 16.191406 28.320312 16.171875 28.414062 16.171875 28.519531 C 16.171875 28.625 16.191406 28.714844 16.230469 28.789062 C 16.269531 28.867188 16.324219 28.921875 16.390625 28.960938 C 16.460938 29 16.539062 29.019531 16.625 29.019531 C 16.726562 29.019531 16.8125 28.996094 16.886719 28.945312 C 16.957031 28.894531 17 28.832031 17.011719 28.753906 L 17.292969 28.753906 C 17.28125 28.851562 17.246094 28.941406 17.1875 29.015625 C 17.128906 29.09375 17.050781 29.152344 16.953125 29.191406 C 16.855469 29.234375 16.746094 29.257812 16.628906 29.257812 C 16.492188 29.257812 16.367188 29.226562 16.253906 29.171875 Z M 16.253906 29.171875 "/>
<path style=" stroke:none;fill-rule:nonzero;fill:rgb(0%,0%,0%);fill-opacity:1;" d="M 17.574219 29.179688 C 17.53125 29.136719 17.507812 29.078125 17.507812 29 L 17.507812 27.796875 L 17.789062 27.796875 L 17.789062 29.003906 L 18.484375 29.003906 L 18.484375 29.238281 L 17.757812 29.238281 C 17.675781 29.238281 17.613281 29.21875 17.574219 29.179688 Z M 17.574219 29.179688 "/>
<path style=" stroke:none;fill-rule:nonzero;fill:rgb(0%,0%,0%);fill-opacity:1;" d="M 18.84375 29.195312 C 18.761719 29.152344 18.691406 29.09375 18.644531 29.019531 C 18.59375 28.945312 18.570312 28.855469 18.566406 28.753906 L 18.835938 28.753906 C 18.839844 28.835938 18.871094 28.902344 18.925781 28.949219 C 18.980469 28.996094 19.050781 29.019531 19.136719 29.019531 C 19.21875 29.019531 19.285156 29.003906 19.335938 28.96875 C 19.382812 28.9375 19.40625 28.890625 19.40625 28.828125 C 19.40625 28.789062 19.394531 28.753906 19.367188 28.726562 C 19.339844 28.703125 19.304688 28.683594 19.265625 28.667969 C 19.222656 28.652344 19.164062 28.636719 19.09375 28.621094 C 18.992188 28.59375 18.910156 28.570312 18.84375 28.542969 C 18.78125 28.515625 18.722656 28.472656 18.679688 28.414062 C 18.632812 28.355469 18.609375 28.28125 18.609375 28.183594 C 18.609375 28.105469 18.632812 28.035156 18.675781 27.972656 C 18.71875 27.910156 18.777344 27.863281 18.855469 27.832031 C 18.933594 27.796875 19.023438 27.78125 19.121094 27.78125 C 19.222656 27.78125 19.316406 27.796875 19.394531 27.835938 C 19.476562 27.871094 19.539062 27.921875 19.585938 27.992188 C 19.632812 28.058594 19.65625 28.136719 19.660156 28.226562 L 19.394531 28.226562 C 19.386719 28.164062 19.359375 28.113281 19.308594 28.074219 C 19.261719 28.035156 19.199219 28.015625 19.121094 28.015625 C 19.046875 28.015625 18.988281 28.03125 18.945312 28.0625 C 18.90625 28.089844 18.882812 28.132812 18.882812 28.183594 C 18.882812 28.226562 18.898438 28.257812 18.925781 28.285156 C 18.953125 28.3125 18.988281 28.332031 19.027344 28.347656 C 19.070312 28.359375 19.128906 28.375 19.203125 28.390625 C 19.308594 28.414062 19.390625 28.441406 19.457031 28.464844 C 19.519531 28.492188 19.574219 28.53125 19.621094 28.589844 C 19.667969 28.648438 19.691406 28.726562 19.691406 28.824219 C 19.691406 28.914062 19.667969 28.988281 19.621094 29.054688 C 19.574219 29.117188 19.511719 29.167969 19.425781 29.203125 C 19.34375 29.238281 19.246094 29.257812 19.136719 29.257812 C 19.027344 29.257812 18.929688 29.234375 18.84375 29.195312 Z M 18.84375 29.195312 "/>
<path style=" stroke:none;fill-rule:nonzero;fill:rgb(0%,0%,0%);fill-opacity:1;" d="M 20.105469 29.1875 C 20.019531 29.140625 19.953125 29.078125 19.90625 28.996094 C 19.855469 28.914062 19.832031 28.820312 19.832031 28.71875 C 19.832031 28.617188 19.855469 28.527344 19.90625 28.445312 C 19.953125 28.363281 20.019531 28.300781 20.105469 28.253906 C 20.1875 28.207031 20.285156 28.183594 20.394531 28.183594 C 20.5 28.183594 20.59375 28.207031 20.679688 28.253906 C 20.765625 28.300781 20.832031 28.363281 20.878906 28.445312 C 20.925781 28.527344 20.953125 28.617188 20.953125 28.71875 C 20.953125 28.820312 20.925781 28.914062 20.878906 28.996094 C 20.832031 29.078125 20.765625 29.140625 20.679688 29.1875 C 20.59375 29.234375 20.5 29.257812 20.394531 29.257812 C 20.285156 29.257812 20.1875 29.234375 20.105469 29.1875 Z M 20.175781 28.949219 C 20.230469 29.007812 20.304688 29.039062 20.394531 29.039062 C 20.480469 29.039062 20.550781 29.007812 20.605469 28.949219 C 20.660156 28.890625 20.6875 28.8125 20.6875 28.71875 C 20.6875 28.625 20.660156 28.550781 20.605469 28.492188 C 20.550781 28.433594 20.480469 28.402344 20.394531 28.402344 C 20.304688 28.402344 20.230469 28.433594 20.175781 28.492188 C 20.121094 28.550781 20.09375 28.625 20.09375 28.71875 C 20.09375 28.8125 20.121094 28.890625 20.175781 28.949219 Z M 20.175781 28.949219 "/>
<path style=" stroke:none;fill-rule:nonzero;fill:rgb(0%,0%,0%);fill-opacity:1;" d="M 21.222656 28.414062 L 21.015625 28.414062 L 21.015625 28.199219 L 21.222656 28.199219 L 21.222656 27.96875 C 21.222656 27.90625 21.246094 27.855469 21.285156 27.8125 C 21.324219 27.773438 21.378906 27.753906 21.445312 27.753906 L 21.796875 27.753906 L 21.796875 27.96875 L 21.484375 27.96875 L 21.484375 28.199219 L 21.796875 28.199219 L 21.796875 28.414062 L 21.484375 28.414062 L 21.484375 29.238281 L 21.222656 29.238281 Z M 21.222656 28.414062 "/>
<path style=" stroke:none;fill-rule:nonzero;fill:rgb(0%,0%,0%);fill-opacity:1;" d="M 22.136719 29.183594 C 22.101562 29.148438 22.082031 29.09375 22.082031 29.023438 L 22.082031 28.414062 L 21.871094 28.414062 L 21.871094 28.199219 L 22.082031 28.199219 L 22.082031 27.886719 L 22.34375 27.886719 L 22.34375 28.199219 L 22.640625 28.199219 L 22.640625 28.414062 L 22.34375 28.414062 L 22.34375 29.023438 L 22.640625 29.023438 L 22.640625 29.238281 L 22.300781 29.238281 C 22.230469 29.238281 22.175781 29.222656 22.136719 29.183594 Z M 22.136719 29.183594 "/>
<path style=" stroke:none;fill-rule:nonzero;fill:rgb(0%,0%,0%);fill-opacity:1;" d="M 22.730469 28.199219 L 22.992188 28.199219 L 23.1875 28.894531 L 23.398438 28.199219 L 23.640625 28.199219 L 23.847656 28.894531 L 24.042969 28.199219 L 24.304688 28.199219 L 23.964844 29.238281 L 23.734375 29.238281 L 23.519531 28.539062 L 23.304688 29.238281 L 23.070312 29.238281 Z M 22.730469 28.199219 "/>
<path style=" stroke:none;fill-rule:nonzero;fill:rgb(0%,0%,0%);fill-opacity:1;" d="M 24.46875 29.167969 C 24.40625 29.109375 24.371094 29.035156 24.371094 28.941406 C 24.371094 28.84375 24.410156 28.765625 24.480469 28.707031 C 24.554688 28.648438 24.652344 28.617188 24.773438 28.617188 L 24.972656 28.617188 C 24.996094 28.617188 25.015625 28.609375 25.027344 28.597656 C 25.039062 28.585938 25.046875 28.566406 25.046875 28.546875 C 25.046875 28.496094 25.027344 28.453125 24.988281 28.421875 C 24.953125 28.390625 24.898438 28.375 24.832031 28.375 C 24.765625 28.375 24.710938 28.390625 24.671875 28.425781 C 24.628906 28.460938 24.609375 28.5 24.605469 28.550781 L 24.371094 28.550781 C 24.375 28.484375 24.398438 28.421875 24.4375 28.363281 C 24.476562 28.308594 24.53125 28.265625 24.601562 28.234375 C 24.671875 28.199219 24.753906 28.183594 24.84375 28.183594 C 24.933594 28.183594 25.015625 28.199219 25.085938 28.230469 C 25.15625 28.261719 25.210938 28.308594 25.25 28.367188 C 25.285156 28.425781 25.304688 28.492188 25.304688 28.570312 L 25.304688 29.238281 L 25.046875 29.238281 L 25.046875 29.085938 C 25.027344 29.136719 24.988281 29.179688 24.929688 29.210938 C 24.871094 29.242188 24.804688 29.257812 24.730469 29.257812 C 24.621094 29.257812 24.535156 29.226562 24.46875 29.167969 Z M 24.671875 29.03125 C 24.699219 29.054688 24.742188 29.066406 24.789062 29.066406 C 24.871094 29.066406 24.933594 29.042969 24.980469 28.992188 C 25.023438 28.945312 25.046875 28.878906 25.046875 28.800781 L 25.046875 28.785156 L 24.808594 28.785156 C 24.753906 28.785156 24.710938 28.796875 24.675781 28.824219 C 24.640625 28.851562 24.625 28.886719 24.625 28.933594 C 24.625 28.972656 24.640625 29.007812 24.671875 29.03125 Z M 24.671875 29.03125 "/>
<path style=" stroke:none;fill-rule:nonzero;fill:rgb(0%,0%,0%);fill-opacity:1;" d="M 25.601562 28.257812 C 25.640625 28.21875 25.695312 28.199219 25.761719 28.199219 L 26.160156 28.199219 L 26.160156 28.414062 L 25.800781 28.414062 L 25.800781 29.238281 L 25.539062 29.238281 L 25.539062 28.414062 C 25.539062 28.351562 25.5625 28.296875 25.601562 28.257812 Z M 25.601562 28.257812 "/>
<path style=" stroke:none;fill-rule:nonzero;fill:rgb(0%,0%,0%);fill-opacity:1;" d="M 26.28125 28.453125 C 26.320312 28.371094 26.382812 28.308594 26.460938 28.257812 C 26.539062 28.210938 26.636719 28.183594 26.746094 28.183594 C 26.859375 28.183594 26.957031 28.207031 27.035156 28.253906 C 27.113281 28.304688 27.171875 28.363281 27.210938 28.441406 C 27.25 28.515625 27.269531 28.597656 27.269531 28.683594 C 27.269531 28.714844 27.265625 28.746094 27.265625 28.773438 L 26.472656 28.773438 C 26.484375 28.855469 26.515625 28.921875 26.566406 28.972656 C 26.621094 29.019531 26.6875 29.046875 26.769531 29.046875 C 26.835938 29.046875 26.890625 29.03125 26.933594 29.007812 C 26.976562 28.980469 27.003906 28.941406 27.015625 28.894531 L 27.273438 28.894531 C 27.253906 29.003906 27.195312 29.089844 27.105469 29.15625 C 27.011719 29.222656 26.902344 29.257812 26.769531 29.257812 C 26.65625 29.257812 26.558594 29.230469 26.476562 29.179688 C 26.394531 29.128906 26.332031 29.0625 26.289062 28.980469 C 26.246094 28.898438 26.222656 28.808594 26.222656 28.714844 C 26.222656 28.621094 26.242188 28.535156 26.28125 28.453125 Z M 27.007812 28.605469 C 27 28.535156 26.976562 28.480469 26.929688 28.4375 C 26.882812 28.394531 26.824219 28.375 26.746094 28.375 C 26.597656 28.375 26.507812 28.449219 26.480469 28.605469 Z M 27.007812 28.605469 "/>
<path style=" stroke:none;fill-rule:nonzero;fill:rgb(0%,0%,0%);fill-opacity:1;" d="M 29.648438 21.605469 L 29.460938 21.605469 L 29.460938 21.527344 L 29.929688 21.527344 L 29.929688 21.605469 L 29.742188 21.605469 L 29.742188 22.117188 L 29.648438 22.117188 Z M 29.648438 21.605469 "/>
<path style=" stroke:none;fill-rule:nonzero;fill:rgb(0%,0%,0%);fill-opacity:1;" d="M 30.027344 21.527344 L 30.140625 21.527344 L 30.332031 21.996094 L 30.523438 21.527344 L 30.636719 21.527344 L 30.636719 22.117188 L 30.550781 22.117188 L 30.550781 21.679688 L 30.367188 22.117188 L 30.296875 22.117188 L 30.113281 21.679688 L 30.113281 22.117188 L 30.027344 22.117188 Z M 30.027344 21.527344 "/>
</g>
</svg>
